<?xml version="1.0" encoding="UTF-8" standalone="no"?>
<!-- Created with Inkscape (http://www.inkscape.org/) -->

<svg
   width="169mm"
   height="169mm"
   viewBox="0 0 169 169"
   version="1.1"
   id="svg5"
   xml:space="preserve"
   inkscape:export-filename="64x64.png"
   inkscape:export-xdpi="9.6189346"
   inkscape:export-ydpi="9.6189346"
   inkscape:version="1.2 (dc2aedaf03, 2022-05-15)"
   sodipodi:docname="icon.svg"
   xmlns:inkscape="http://www.inkscape.org/namespaces/inkscape"
   xmlns:sodipodi="http://sodipodi.sourceforge.net/DTD/sodipodi-0.dtd"
   xmlns="http://www.w3.org/2000/svg"
   xmlns:svg="http://www.w3.org/2000/svg"><sodipodi:namedview
     id="namedview7"
     pagecolor="#ffffff"
     bordercolor="#000000"
     borderopacity="0.25"
     inkscape:showpageshadow="false"
     inkscape:pageopacity="0.0"
     inkscape:pagecheckerboard="0"
     inkscape:deskcolor="#d1d1d1"
     inkscape:document-units="mm"
     showgrid="false"
     inkscape:zoom="0.75187991"
     inkscape:cx="119.69997"
     inkscape:cy="372.3999"
     inkscape:window-width="1920"
     inkscape:window-height="1044"
     inkscape:window-x="1909"
     inkscape:window-y="-11"
     inkscape:window-maximized="1"
     inkscape:current-layer="layer1" /><defs
     id="defs2"><clipPath
       clipPathUnits="userSpaceOnUse"
       id="clipPath464"><path
         style="fill:#000000;stroke-width:0.264583"
         d="m 28.975906,172.81374 c -3.824195,-1.41411 -6.377908,-4.2372 -7.117789,-7.86862 -0.168566,-0.82732 -0.225499,-1.95842 -0.126521,-2.51354 0.18216,-1.02167 3.987083,-10.44495 6.61843,-16.39119 l 1.4341,-3.24075 v -10.334 -10.334 h -0.922491 c -0.785114,0 -0.98003,0.12806 -1.308862,0.8599 -0.524243,1.16674 -0.923139,1.6201 -2.006658,2.28062 -1.091737,0.66553 -3.345744,0.76218 -4.440232,0.1904 -1.505937,-0.78674 -2.96853,-2.9181 -2.957613,-4.30997 0.007,-0.89758 0.803984,-2.72113 1.407467,-3.22053 0.375766,-0.31096 0.438806,-0.98043 0.438806,-4.65997 v -4.29685 l -0.77202,-0.97146 c -1.012878,-1.27454 -1.240586,-2.65816 -0.671523,-4.08039 1.144384,-2.86009 4.551598,-3.972315 7.225485,-2.35863 0.950145,0.57341 1.888368,1.88464 1.889982,2.64136 7.94e-4,0.36364 0.228153,0.46302 1.059323,0.46302 h 1.058333 v -1.80596 c 3e-6,-2.42633 0.513136,-2.956537 2.861326,-2.956537 h 1.636591 v -1.860582 c 0,-1.023318 0.160859,-2.245569 0.357463,-2.716112 0.472495,-1.130839 2.02973,-2.47038 3.273327,-2.81573 0.5618,-0.156014 3.635086,-0.278188 7.018689,-0.279016 l 6.019271,-0.0016 V 77.995312 63.75699 l -1.223722,-0.909071 c -2.607077,-1.936726 -4.772546,-5.407266 -5.405826,-8.663776 -0.632018,-3.250018 0.16093,-7.348374 1.902214,-9.83157 0.916326,-1.306754 0.954307,-1.104808 -0.633362,-3.367718 -1.385449,-1.974685 -1.885815,-3.867851 -1.874383,-7.091838 0.0087,-2.44897 0.116279,-3.193222 0.678633,-4.694116 0.934288,-2.493584 2.219417,-4.518435 3.845829,-6.059498 l 1.390426,-1.317461 -1.141439,-1.90196 c -5.165553,-8.60728 -6.310371,-17.1077255 -3.338439,-24.788421 2.128668,-5.501354 7.622135,-10.643071 12.798872,-11.979346 3.069596,-0.792359 5.17243,-0.148543 6.21969,1.904259 0.502153,0.9843 0.53984,1.535276 0.53984,7.8922904 0,6.76110695 0.131731,8.0914399 1.035834,10.4607016 l 0.281342,0.7372774 1.527103,-1.5606581 c 2.210784,-2.25935907 4.848228,-3.47361665 7.667853,-3.53021367 1.091385,-0.0219075 1.429885,-0.17835563 2.581862,-1.19328933 0.729189,-0.6424428 2.099704,-1.5495059 3.045587,-2.0156964 1.619459,-0.7981659 1.889588,-0.8476165 4.630208,-0.8476165 2.722648,0 2.993107,0.048604 4.192114,0.753364 0.882317,0.5186151 1.583098,1.2323709 2.248959,2.2905931 l 0.967261,1.53722921 1.602914,-0.14130338 c 3.106309,-0.27383316 5.96154,1.11585111 7.74786,3.77100047 0.48625,0.7227649 1.01715,1.3141166 1.17976,1.3141166 0.16262,0 0.52993,-0.714375 0.81625,-1.5875 0.45233,-1.3793417 0.54049,-2.61094011 0.67232,-9.3927084 0.12933,-6.652906 0.21809,-7.926356 0.60123,-8.625813 1.31443,-2.399639 4.65106,-2.653113 8.81092,-0.669338 9.17383,4.374869 13.73294,15.03288933 11.00945,25.7372378 -0.8839,3.4740272 -2.42064,7.1547192 -4.13686,9.9082862 l -1.20202,1.928548 1.69018,1.732288 c 0.9296,0.952754 2.06765,2.440506 2.52902,3.306114 1.01104,1.896909 1.88418,5.155411 1.88418,7.031633 0,2.90277 -1.51789,6.967005 -3.1555,8.449027 -0.49155,0.444844 -0.47782,0.49694 0.57245,2.172025 2.19473,3.500379 2.66011,7.725325 1.28584,11.673472 -0.87971,2.527292 -2.21075,4.422606 -4.51093,6.423234 l -1.60479,1.395804 0.0684,14.047386 0.0684,14.047382 6.48229,0.132292 c 7.03855,0.143645 7.2984,0.195797 8.78057,1.762316 0.99041,1.046784 1.2736,1.953032 1.2736,4.075742 v 1.834859 h 1.55819 c 2.2864,0 2.75678,0.468034 2.89299,2.878574 l 0.10645,1.88392 h 1.14515 c 0.62984,0 1.21979,-0.12076 1.31101,-0.26836 0.0912,-0.1476 0.65503,-0.51792 1.2529,-0.82293 1.45661,-0.74311 3.26093,-0.58322 4.55472,0.4036 1.70861,1.30321 1.73067,1.4277 1.73067,9.76355 0,7.37813 -0.0109,7.53086 -0.60161,8.40736 -1.69382,2.51347 -5.05874,2.83551 -7.05128,0.67484 -0.44542,-0.48301 -0.91032,-0.69556 -1.52135,-0.69556 h -0.87992 v 10.17604 10.17604 l 2.27334,5.50052 c 6.27119,15.17358 5.72919,13.64091 5.62449,15.90492 -0.16462,3.55993 -2.30127,6.73315 -5.64888,8.38936 l -1.5875,0.78541 -55.297911,0.0488 c -45.12392,0.0398 -55.470954,-0.0152 -56.238423,-0.29899 z m 108.580124,-7.03185 c 1.39131,0.008 2.55934,-1.13654 2.55934,-2.50843 0,-0.61803 -0.96345,-3.3259 -2.66662,-7.49483 -1.46664,-3.58996 -3.19305,-7.90954 -3.83646,-9.59907 l -1.16984,-3.07188 v -14.72985 c 0,-16.25221 0.0166,-16.07869 -1.63772,-17.08732 -0.83051,-0.50635 -1.3169,-0.53402 -9.40253,-0.53496 l -8.52671,-0.001 -0.4552,0.7276 c -2.89558,4.62845 -6.82945,8.08157 -12.18055,10.69202 -6.817076,3.32559 -14.483849,4.30115 -22.370996,2.8466 -8.437594,-1.55607 -15.33363,-5.83343 -19.784237,-12.27146 l -1.378977,-1.99476 h -8.446759 c -9.339863,0 -9.581229,0.0382 -10.466522,1.65812 -0.427038,0.78138 -0.479161,2.18365 -0.602224,16.20125 l -0.134723,15.34584 -2.672392,6.48229 c -1.469814,3.56526 -3.165359,7.63708 -3.767876,9.04849 -0.602522,1.4114 -1.095494,2.93536 -1.095494,3.38657 0,1.47029 0.871916,2.58429 2.314858,2.95757 0.181761,0.047 23.815667,0.053 52.519789,0.0133 28.704123,-0.0397 52.644953,-0.0694 53.201843,-0.0661 z m -94.341188,-5.81773 c -2.136844,-0.19028 -2.902146,-0.97956 -3.059534,-3.15541 -0.111058,-1.53537 -0.08094,-1.6286 0.815708,-2.52525 l 0.931024,-0.93103 h 4.405223 c 4.876773,0 5.640443,0.18961 6.358839,1.57884 0.747432,1.44538 0.371883,3.541 -0.811059,4.52585 -0.505843,0.42114 -5.990296,0.74296 -8.640201,0.507 z m 16.905433,-0.867 c -1.658231,-1.56391 -1.461757,-3.93918 0.440938,-5.33074 0.741299,-0.54215 0.921364,-0.54624 24.077081,-0.54624 22.044576,0 23.378736,0.0265 24.210946,0.4806 1.49899,0.81796 2.02825,2.83942 1.20025,4.5843 -0.84096,1.77218 0.52475,1.68198 -25.464642,1.68198 H 61.042633 Z m 57.464285,0.27327 c -0.38647,-0.3267 -0.83295,-0.85406 -0.99218,-1.17192 -0.40915,-0.81674 -0.35908,-2.35653 0.10585,-3.25562 0.77592,-1.50044 1.13257,-1.59042 6.30455,-1.59042 h 4.73009 l 0.89958,0.89959 c 0.81263,0.81263 0.89959,1.04536 0.89959,2.40771 0,1.36234 -0.087,1.59508 -0.89959,2.4077 l -0.89958,0.89959 -4.72281,-0.001 c -4.50861,-0.001 -4.75469,-0.0283 -5.4255,-0.59531 z M 44.684057,147.95132 c -2.090293,-0.94184 -2.295845,-4.83629 -0.309478,-5.86348 0.471075,-0.2436 1.563836,-0.37703 3.087807,-0.37703 2.749317,0 3.537569,0.41022 4.045437,2.10534 0.419023,1.39857 0.119054,2.68195 -0.842143,3.603 -0.741381,0.71041 -0.985475,0.77961 -2.973268,0.84293 -1.447496,0.0461 -2.445036,-0.0569 -3.008355,-0.31076 z m 13.213718,0.10186 c -1.375532,-0.55302 -2.104112,-3.21581 -1.339223,-4.89456 0.496625,-1.08997 1.500793,-1.44781 4.062849,-1.44781 2.249892,0 2.303753,0.0152 3.188139,0.89958 0.76509,0.76509 0.899583,1.08351 0.899583,2.12981 0,1.60855 -0.610568,2.74191 -1.728867,3.20916 -0.992962,0.41488 -4.148441,0.47934 -5.082481,0.10382 z m 13.244613,-0.10358 c -1.066279,-0.47827 -1.670765,-1.63615 -1.670765,-3.20034 0,-2.79053 0.654527,-3.03845 8.02181,-3.03845 3.458247,0 5.984592,0.114 6.498828,0.29327 2.155375,0.75136 2.309048,4.66138 0.229883,5.84898 -0.915585,0.52297 -11.947498,0.6044 -13.079756,0.0965 z m 21.549746,-0.0384 c -0.994555,-0.53963 -1.52468,-1.68606 -1.52468,-3.2972 0,-1.14641 0.119737,-1.47614 0.773398,-2.1298 0.750163,-0.75017 0.851721,-0.7734 3.380711,-0.7734 1.934467,0 2.759456,0.10656 3.196865,0.41293 1.908512,1.33678 1.790932,4.77149 -0.198564,5.8003 -1.032799,0.53408 -4.634913,0.52587 -5.62773,-0.0128 z m 13.385406,-0.0955 c -1.6743,-1.02093 -1.88124,-4.02703 -0.37017,-5.3773 0.75958,-0.67873 0.97309,-0.7276 3.17889,-0.7276 1.30055,0 2.64821,0.12921 2.99481,0.28713 1.39962,0.63771 1.96452,3.0962 1.09694,4.77393 -0.55877,1.08053 -1.82093,1.55372 -4.14112,1.55253 -1.43261,-7.9e-4 -2.14026,-0.13119 -2.75935,-0.50869 z m 12.977,-0.3899 c -0.82888,-0.82888 -0.89959,-1.02805 -0.89959,-2.5339 0,-1.45356 0.0855,-1.71984 0.7734,-2.4077 0.75232,-0.75232 0.84596,-0.7734 3.43541,-0.7734 2.54385,0 2.69894,0.033 3.49393,0.74332 1.58957,1.42028 1.27722,4.52485 -0.55033,5.46991 -0.51824,0.26799 -1.53655,0.40135 -3.06468,0.40135 -2.2499,0 -2.30376,-0.0152 -3.18814,-0.89958 z M 42.24462,136.00277 c -1.620819,-1.36383 -1.688812,-3.96575 -0.141616,-5.41926 0.580097,-0.54498 1.001885,-0.65891 2.729762,-0.73738 3.490111,-0.15849 4.795107,0.85596 4.795107,3.72752 0,2.22104 -1.276201,3.11007 -4.464476,3.11007 -1.880232,0 -2.197462,-0.074 -2.918777,-0.68095 z m 13.551937,0.29369 c -2.012069,-0.8751 -2.215571,-4.17295 -0.359614,-5.82771 0.499835,-0.44565 0.971376,-0.52685 3.072908,-0.52916 2.42348,-0.003 2.501948,0.0167 3.302156,0.81572 1.49959,1.49734 1.300748,4.39918 -0.371305,5.41874 -1.014508,0.61861 -4.337574,0.69068 -5.644145,0.12241 z m 13.229167,0 c -2.309392,-1.00442 -2.181477,-5.34049 0.181316,-6.14624 0.509323,-0.17369 1.731462,-0.32251 2.715866,-0.33073 1.663872,-0.0139 1.856547,0.0462 2.738046,0.85405 0.744916,0.68266 0.976974,1.12403 1.082302,2.0585 0.190312,1.68846 -0.438595,3.06929 -1.623404,3.56433 -1.161021,0.48511 -3.978852,0.48516 -5.094126,9e-5 z m 12.881316,-0.0762 c -1.702345,-0.85041 -2.004036,-3.79377 -0.55494,-5.41412 0.611677,-0.68397 0.907873,-0.7851 2.694189,-0.91993 3.496479,-0.26389 5.005985,0.74994 4.999609,3.3579 -0.006,2.45203 -1.257284,3.43876 -4.360736,3.43876 -1.233781,0 -2.161233,-0.15444 -2.778122,-0.46261 z m 13.232844,0 c -1.239739,-0.62179 -1.644869,-1.47381 -1.494107,-3.14221 0.148622,-1.64471 0.557705,-2.35353 1.660253,-2.87672 1.02254,-0.48523 4.198633,-0.52145 5.1139,-0.0583 2.37308,1.2008 2.458,5.19243 0.13116,6.16465 -1.278311,0.53412 -4.268311,0.48582 -5.411206,-0.0874 z m 13.020456,-0.0534 c -1.08169,-0.6763 -1.46295,-1.63044 -1.30988,-3.27807 0.0923,-0.99356 0.30665,-1.46896 0.95436,-2.11666 0.81965,-0.81966 0.88225,-0.83532 3.33868,-0.83532 2.46382,0 2.51674,0.0134 3.35054,0.84718 0.71961,0.71961 0.86421,1.0826 0.96027,2.41061 0.10439,1.4432 0.0515,1.63238 -0.68777,2.46011 -0.78904,0.88345 -0.83732,0.89784 -3.27029,0.97529 -2.11555,0.0674 -2.59359,0.001 -3.33591,-0.46314 z m 13.51746,0.12956 c -1.98194,-0.862 -2.21752,-4.17284 -0.41133,-5.7809 0.79622,-0.70888 4.44218,-0.92306 5.59194,-0.3285 1.11456,0.57636 1.8786,1.87601 1.87499,3.18937 -0.006,2.31868 -1.32149,3.31285 -4.36074,3.29653 -1.01864,-0.005 -2.23133,-0.17489 -2.69486,-0.3765 z M 47.325615,123.46527 c -1.128326,-0.68798 -1.666492,-1.808 -1.666492,-3.46828 0,-1.23024 0.100693,-1.46788 1.005261,-2.37245 1.304864,-1.30486 2.488787,-1.54848 4.087826,-0.84115 2.082813,0.92133 2.892287,3.62749 1.651505,5.52116 -1.048718,1.60055 -3.454789,2.15051 -5.0781,1.16072 z M 29.784126,113.3859 v -3.45408 l -1.256771,0.0806 -1.256773,0.0806 -0.07405,3.37344 -0.07405,3.37344 h 1.33082 1.330822 z m 112.712494,0.0145 v -3.43958 h -1.32292 -1.32291 v 3.43958 3.43959 h 1.32291 1.32292 z m -74.151878,-2.25873 c 2.262124,-1.01177 4.126775,-2.39055 6.626587,-4.8999 1.321917,-1.32696 2.57841,-2.36593 2.860604,-2.36538 0.276778,5.3e-4 0.880107,0.23079 1.340736,0.51166 0.688245,0.41967 0.892085,0.7736 1.143786,1.98603 0.5261,2.53423 2.085115,3.85132 4.558734,3.85132 1.079013,0 1.642766,-0.16026 2.418807,-0.68759 0.962335,-0.65392 1.756791,-1.96624 1.756791,-2.90194 0,-0.86584 0.8469,-2.18912 1.600928,-2.50145 1.204497,-0.49891 1.919983,-0.13967 3.683521,1.84951 2.578539,2.90845 6.093654,5.28143 8.770724,5.92091 0.65672,0.15688 0.71567,0.0848 1.10556,-1.35217 0.22652,-0.83484 0.54412,-2.23227 0.70577,-3.10539 0.48923,-2.64246 0.52393,-2.74472 1.11992,-3.29997 0.48856,-0.45516 0.93092,-0.53649 2.91792,-0.53649 h 2.34206 l -0.0769,-2.18281 -0.0768,-2.182815 -26.39219,-0.0781 -26.392187,-0.0781 v 2.260915 2.26091 H 60.5724 c 3.016245,0 3.416096,0.32064 3.863597,3.09814 0.182652,1.13368 0.563565,2.8113 0.846473,3.72805 0.580181,1.88002 0.483915,1.85787 3.062272,0.70466 z M 50.95079,101.36185 v -2.248957 h -4.7625 -4.7625 v 2.248957 2.24896 h 4.7625 4.7625 z m 77.25833,-0.006 v -2.255062 l -4.69635,0.07225 -4.69636,0.07225 -0.0791,1.825832 c -0.0435,1.00421 -0.0175,1.98647 0.0578,2.18281 0.10775,0.2808 1.12685,0.35698 4.7755,0.35698 l 4.63851,10e-6 v -2.25506 z M 111.27678,76.424867 c 0.001,-18.218767 -0.18737,-16.892701 2.60145,-18.300494 1.8033,-0.910304 3.6188,-2.823316 4.00753,-4.222779 0.40477,-1.457219 0.32607,-3.914261 -0.15613,-4.874241 -0.23394,-0.465717 -0.94276,-1.382538 -1.57518,-2.037382 -1.58579,-1.642046 -2.33685,-3.411175 -2.10488,-4.95808 0.15565,-1.037939 0.43246,-1.441154 2.11452,-3.080112 2.18414,-2.128171 2.67983,-3.273693 2.43804,-5.634133 -0.30982,-3.02445 -1.72683,-4.959186 -4.63663,-6.330707 -2.4392,-1.149704 -2.84427,-1.483778 -3.23513,-2.668082 -0.48644,-1.473938 -0.10977,-2.477688 1.87792,-5.004247 2.00062,-2.543003 3.80949,-5.934067 4.8639,-9.118325 2.23616,-6.7530555 1.17252,-12.6367459 -3.06447,-16.9515815 l -1.65453,-1.6849381 -0.19347,5.159375 c -0.16567,4.4180628 -0.29286,5.4996424 -0.88522,7.5275705 -1.83448,6.2803171 -5.47131,10.3805251 -10.32984,11.6460141 -3.796525,0.988869 -6.714114,-0.143862 -7.372226,-2.862205 -0.392411,-1.620872 1.047597,-3.7072064 2.80076,-4.0578401 C 97.778796,8.7715595 97.662253,8.1738895 96.45729,7.3526493 95.640037,6.7956511 95.364669,6.7460762 94.077871,6.924281 91.270152,7.31311 90.044435,7.218204 89.141637,6.5420718 88.682281,6.1980474 88.101748,5.4842597 87.851563,4.9558762 87.601376,4.4274954 87.262836,3.7092866 87.099255,3.3598593 86.353921,1.7677688 84.836734,1.9620629 82.425721,3.95836 80.100404,5.8836985 79.411101,6.1913508 76.743498,6.4944654 75.128465,6.6779777 74.111222,6.950107 73.33095,7.4073758 c -3.563321,2.0882451 -5.327325,6.6621582 -3.837094,9.9492622 0.916403,2.021374 2.339539,3.175 3.916744,3.175 0.750578,0 0.782944,-0.04506 0.644623,-0.897398 -0.199599,-1.22999 0.323461,-2.658737 1.262684,-3.449037 1.83819,-1.546738 4.182647,-0.966682 5.922695,1.465371 1.362049,1.90373 2.689273,3.303 3.973727,4.189447 2.543125,1.755092 7.487915,2.505387 9.073026,1.376685 1.490943,-1.061643 3.8755,-0.546899 4.680828,1.010441 1.304757,2.523125 -0.352219,5.098421 -4.096562,6.366928 -1.496814,0.507088 -2.097178,0.564714 -4.630486,0.444471 -4.206563,-0.199665 -7.040952,-1.240213 -9.964386,-3.658071 l -1.233416,-1.020114 -1.519809,0.695793 c -5.16795,2.365965 -11.7802,-0.309692 -14.501958,-5.868249 -1.185259,-2.420612 -1.626015,-5.111623 -1.244947,-7.600929 l 0.316109,-2.064951 -0.961636,-1.117589 C 59.83552,8.8987606 58.241201,5.4937768 57.69648,3.0691404 57.429788,1.8820476 57.181008,-0.80594179 57.077291,-3.6210635 l -0.173376,-4.7058262 -1.537033,1.5260267 c -2.449788,2.4322431 -3.646657,4.9292536 -4.17154,8.7030163 -0.682152,4.9044913 1.753208,12.3015667 5.610786,17.0419847 2.441371,3.000105 2.752407,3.988419 1.826429,5.803487 -0.489987,0.960451 -2.222786,2.134013 -3.150931,2.134013 -0.662122,0 -3.156318,2.677356 -3.724399,3.997899 -1.369198,3.182784 -0.994667,5.324734 1.350994,7.726394 0.879443,0.900441 1.751486,1.934821 1.937872,2.298623 1.036809,2.023732 0.583144,3.792927 -1.568559,6.117019 -0.839435,0.906693 -1.560017,1.975347 -1.71973,2.550435 -0.666052,2.398303 -0.05694,5.10308 1.523687,6.765994 0.391605,0.411991 1.455111,1.165799 2.363349,1.675127 2.975795,1.668799 2.714283,-0.08942 2.714283,18.248982 v 15.971607 h 26.458331 26.458336 l 0.001,-15.808851 z M 75.657132,86.045315 C 74.109624,85.34817 73.96954,84.877439 73.96954,80.374429 v -4.068627 l 0.899581,-0.899581 c 1.546516,-1.546516 2.533012,-1.277411 6.066033,1.654712 0.914122,0.758653 1.3516,0.776671 2.222603,0.09154 0.873641,-0.687205 2.253676,-0.675302 3.509068,0.03026 l 0.995379,0.559435 1.686478,-1.315953 c 2.667775,-2.081649 3.273165,-2.275644 4.737849,-1.518226 1.333933,0.689803 1.57884,1.54701 1.57884,5.526182 0,2.210266 -0.120775,3.837633 -0.316722,4.267695 -0.352452,0.773546 -1.964989,1.711018 -2.943109,1.711018 -0.675944,0 -2.032831,-0.830889 -3.735242,-2.287283 l -1.041948,-0.891373 -0.714467,0.684503 c -0.924018,0.885267 -2.509719,1.116986 -3.640868,0.532045 -0.460243,-0.238003 -0.836811,-0.548735 -0.836811,-0.69052 0,-0.530518 -0.712941,-0.214032 -2.439829,1.083077 -1.954408,1.468004 -3.065515,1.775783 -4.339243,1.201979 z m 7.572822,-16.218762 c -4.096962,-0.308711 -7.689339,-1.762694 -10.241375,-4.145108 -2.506007,-2.339446 -2.795461,-4.463939 -0.83316,-6.115106 1.301409,-1.095065 2.684764,-0.93767 4.862129,0.553207 2.727899,1.867834 4.212066,2.31989 7.667614,2.335448 3.522406,0.01585 4.952553,-0.399394 7.789236,-2.261648 1.458021,-0.957175 2.229739,-1.297125 2.944603,-1.297125 2.294866,0 3.884639,2.852097 2.780226,4.987801 -0.869847,1.682094 -3.83899,3.836257 -6.679234,4.845891 -1.463546,0.520253 -5.851017,1.325875 -6.702539,1.230712 -0.218281,-0.02439 -0.932656,-0.08473 -1.5875,-0.134072 z M 82.917891,55.873907 c -1.662271,-0.437669 -2.972149,-1.488086 -3.922929,-3.145872 -0.934453,-1.62932 -0.924428,-1.547408 -0.285856,-2.335316 l 0.506238,-0.624623 0.808138,0.596919 c 0.444476,0.328305 1.079873,0.625961 1.411994,0.661458 0.568367,0.06075 0.608433,-0.03949 0.681733,-1.705808 0.07119,-1.618205 0.02572,-1.797244 -0.529164,-2.083271 -1.457904,-0.75152 -3.462618,-2.484822 -3.795572,-3.281694 -0.48278,-1.155451 -0.09263,-2.538888 0.967605,-3.431013 1.228312,-1.033558 2.887218,-0.947235 4.653338,0.242139 l 1.36702,0.920607 1.368012,-0.920607 c 2.306347,-1.552054 4.591934,-1.173507 5.685751,0.941702 0.930068,1.798555 0.16783,3.183006 -2.62839,4.773938 l -2.007105,1.141957 v 1.63884 c 0,1.254006 0.0988,1.676757 0.420751,1.800302 0.471728,0.181017 0.775777,0.04891 1.607259,-0.698347 1.293188,-1.162187 2.442954,0.413563 1.533705,2.101938 -0.60194,1.117732 -2.290199,2.666494 -3.392498,3.112182 -1.311241,0.530167 -3.104396,0.648864 -4.45003,0.294569 z m -22.733704,-4.99023 c -1.824325,-1.226087 -1.584639,-3.997579 0.41809,-4.834374 1.853509,-0.774446 4.25808,-0.231552 4.863936,1.098159 0.424455,0.931574 0.374081,2.266611 -0.111692,2.96015 -1.017793,1.453102 -3.588755,1.839002 -5.170334,0.776065 z m 45.345943,0.418669 c -0.89858,-0.173926 -1.92726,-1.561912 -1.92726,-2.600433 0,-2.116167 1.39392,-3.182263 3.89014,-2.975256 1.71936,0.142581 2.65899,0.919541 2.89873,2.39689 0.36212,2.231495 -1.9489,3.742573 -4.86161,3.178799 z M 62.581879,42.147379 c -1.337043,-0.707046 -2.370672,-2.384245 -2.370672,-3.846729 0,-1.389714 0.964607,-3.147388 2.162225,-3.939935 1.47144,-0.973754 3.729109,-0.973754 5.200549,0 1.747666,1.156552 2.580791,3.549489 1.88081,5.402144 -0.344747,0.91245 -1.458124,2.119371 -2.417424,2.620534 -1.102101,0.575762 -3.122811,0.468722 -4.455488,-0.236014 z m 39.430801,0.01394 c -2.556021,-1.739615 -2.928102,-4.864196 -0.84033,-7.056716 2.16568,-2.274334 5.57995,-1.926608 7.38516,0.752139 1.36763,2.029418 0.3931,5.254877 -1.92703,6.378033 -1.49885,0.725577 -3.49032,0.693901 -4.6178,-0.07346 z"
         id="path466" /></clipPath></defs><g
     inkscape:label="Layer 1"
     inkscape:groupmode="layer"
     id="layer1"
     transform="translate(-32.049335,6.246611)"><circle
       style="fill:#ffffff;stroke:#000000;stroke-width:0.250502"
       id="path592"
       cx="116.15241"
       cy="79.615952"
       r="78.127892" /><path
       style="fill:#000000;stroke-width:0.264583"
       d="m 114.5869,162.28716 c -1.3957,-0.83179 -1.82462,-1.73494 -1.83184,-3.85715 l -0.006,-1.81126 -7.64839,-7.83733 c -6.335722,-6.49224 -7.678602,-7.99842 -7.824462,-8.77593 -0.14757,-0.78661 0.10249,-1.59545 1.54424,-4.99496 0.94617,-2.231 2.156732,-5.12793 2.690122,-6.43761 2.51953,-6.18639 6.88377,-16.18975 7.25128,-16.62079 0.41865,-0.49102 5.62969,-4.61179 6.80975,-5.38499 0.52739,-0.34556 0.77887,-0.36833 1.32412,-0.1199 1.04975,0.4783 7.12246,5.23124 7.54961,5.90888 0.21024,0.33351 2.2403,5.01169 4.51125,10.39596 6.36005,15.07921 6.82362,16.22513 6.82256,16.86502 -5.3e-4,0.32862 -0.22422,0.95467 -0.49707,1.39123 -0.27284,0.43657 -3.7252,4.0481 -7.67192,8.02562 l -7.17586,7.23187 v 1.59169 c 0,0.9274 -0.18117,1.97348 -0.43411,2.5065 -0.99786,2.10285 -3.57518,3.0185 -5.41312,1.92315 z m -1.83249,-29.01789 -0.007,-12.10469 -2.39547,5.68855 c -1.31751,3.12869 -2.96163,7.01847 -3.65361,8.64395 l -1.25814,2.95541 3.46073,3.46073 c 1.90341,1.90341 3.5506,3.46074 3.66042,3.46074 0.10983,0 0.19662,-5.44711 0.19288,-12.10469 z m 11.68022,-1.78594 c -1.57848,-3.78354 -3.19802,-7.80759 -3.59897,-8.94233 -0.40096,-1.13474 -0.74463,-2.02771 -0.76371,-1.98437 -0.0191,0.0433 0.004,5.66565 0.0504,12.49403 l 0.0851,12.41525 3.54855,-3.55171 3.54854,-3.5517 z m -48.881372,-9.41311 c -1.0889,-0.3192 -2.42411,-1.71061 -2.76427,-2.88062 -0.18161,-0.62466 -0.24542,-11.65953 -0.19206,-33.214594 l 0.0799,-32.27917 0.75888,-2.24896 c 0.76169,-2.25727 2.06085,-5.01203 3.0513,-6.47002 l 0.53089,-0.78149 -0.86935,-1.0706 c -2.92541,-3.60262 -6.50698,-10.11673 -7.94934,-14.45813 -1.70203,-5.12299 -1.93638,-12.32364 -0.55457,-17.03954 0.79454,-2.7116401 2.23977,-5.5516301 3.9682,-7.7978491 2.5728,-3.343558 7.33939,-7.119083 11.50757,-9.114927 3.26127,-1.561592 5.89038,-1.204738 7.07222,0.959927 0.44319,0.811744 0.47587,1.966237 0.47587,16.8128091 0,8.76767 0.0381,15.94119 0.0846,15.94115 0.0465,-4e-5 0.623,-0.37049 1.28101,-0.82321 3.19505,-2.19825 9.795142,-4.57562 15.435412,-5.55987 3.9541,-0.69 11.92189,-0.74775 16.44676,-0.11919 5.75774,0.79982 11.15962,2.54968 15.83241,5.12867 1.23692,0.68268 2.33825,1.28092 2.44739,1.32943 0.10914,0.0485 0.19844,-7.22802 0.19844,-16.17005 0,-16.0867491 0.006,-16.2656501 0.55253,-16.9606651 0.79657,-1.012679 1.87784,-1.485604 3.39661,-1.485604 1.0652,0 1.79119,0.241083 3.65115,1.212438 4.9561,2.588307 8.91768,5.705641 11.33214,8.917159 4.21814,5.6106419 5.91189,13.2151521 4.57979,20.5620721 -1.0077,5.55773 -4.70498,13.37298 -8.57345,18.12242 l -1.18642,1.4566 1.09372,2.17531 c 1.22664,2.43966 1.60899,3.43084 2.42696,6.2915 0.5642,1.97318 0.56785,2.16721 0.64607,34.39583 0.0777,32.031234 0.0725,32.421574 -0.45114,33.273764 -0.76253,1.24111 -2.00802,1.91365 -3.54612,1.91483 -1.67257,10e-4 -2.87218,-0.7381 -3.58433,-2.20919 -0.54474,-1.12529 -0.54794,-1.31467 -0.54794,-32.478184 0,-34.98075 0.12024,-32.66257 -1.89505,-36.53622 -1.04022,-1.99944 -1.12108,-2.08382 -1.84447,-1.92494 -1.06034,0.23289 -2.47478,-0.29929 -3.25274,-1.22384 -0.90466,-1.07514 -1.11232,-2.41371 -0.61548,-3.96738 0.39433,-1.23311 0.38793,-1.28866 -0.26192,-2.2736 -0.90589,-1.37302 -3.32559,-3.8551 -5.11348,-5.24531 -7.46708,-5.80621 -20.50481,-8.1826 -32.03831,-5.83965 -4.10129,0.83316 -6.04829,1.47391 -9.071322,2.98536 -4.25102,2.12541 -6.84276,4.30219 -9.01171,7.56886 l -0.99791,1.50296 0.44723,1.42185 c 0.91037,2.8943 -0.52472,4.93069 -3.47478,4.93069 h -1.27498 l -0.86295,1.56971 c -0.47463,0.86334 -1.12719,2.26233 -1.45014,3.10885 l -0.58718,1.53915 -0.13229,32.32603 -0.1323,32.326014 -0.55682,0.74689 c -1.05202,1.41113 -2.95106,2.10785 -4.50426,1.65253 z M 82.334138,21.267936 V 4.8473359 l -1.22787,0.87633 c -2.26118,1.61383 -5.09377,5.7175301 -5.90114,8.5492601 -0.52311,1.83473 -0.7548,5.1143 -0.51361,7.27012 0.27912,2.49479 1.41453,5.81828 3.21086,9.39863 1.52277,3.03511 3.91067,6.74687 4.34047,6.74687 0.0502,0 0.0913,-7.38927 0.0913,-16.42061 z m 70.120892,13.98732 c 2.76706,-4.1368 4.77419,-8.58018 5.43436,-12.03056 1.14815,-6.00084 -0.27581,-11.70002 -3.88813,-15.5616001 -1.53055,-1.63616 -3.29266,-2.98305 -3.55693,-2.71878 -0.1282,0.12819 0.1814,32.7442301 0.31081,32.7442301 0.0398,0 0.80471,-1.09498 1.69989,-2.43329 z m -43.12141,63.799817 c -2.83533,-0.574147 -5.91128,-2.975217 -6.63994,-5.183097 -0.4439,-1.34502 -0.17985,-3.15847 0.57804,-3.96983 1.65913,-1.7762 3.12727,-1.76249 5.32859,0.0497 1.47013,1.2103 2.36962,1.45177 3.38455,0.9086 0.47098,-0.25206 0.51177,-0.58954 0.51177,-4.23334 v -3.95944 h -2.14282 c -2.51886,0 -3.68528,-0.44725 -4.46759,-1.71304 -0.70366,-1.13854 -0.71064,-3.15231 -0.0149,-4.29339 0.96353,-1.58024 1.17815,-1.61503 10.48488,-1.69926 8.35546,-0.0756 8.48135,-0.0688 9.42011,0.5114 2.10052,1.2982 2.42096,4.3171 0.64659,6.09148 -0.94005,0.94005 -1.02195,0.96645 -3.40984,1.09914 l -2.44666,0.13596 -0.0728,3.9894 -0.0728,3.9894 0.68055,0.31008 c 1.04847,0.47771 1.32339,0.39595 2.8501,-0.84757 2.35504,-1.9182 2.78715,-2.05029 4.32304,-1.32146 1.81803,0.86271 2.69011,3.47273 1.84009,5.50713 -0.89769,2.14846 -4.3166,4.43251 -7.1682,4.788787 -1.53225,0.19145 -3.82985,-0.19816 -5.57167,-0.944787 -1.11005,-0.47582 -1.14002,-0.47432 -2.66966,0.13419 -1.8625,0.740917 -3.77767,0.972637 -5.37147,0.649897 z M 91.065388,70.491446 c -1.56565,-0.73189 -2.28717,-1.43349 -3.1235,-3.03727 -1.37274,-2.63245 -0.67388,-6.17397 1.53391,-7.77329 1.52684,-1.10603 2.68486,-1.43098 4.65302,-1.30566 2.07712,0.13226 3.54594,1.05687 4.73551,2.98096 0.70798,1.14512 0.80001,1.52706 0.80001,3.31986 0,1.79321 -0.092,2.17462 -0.80074,3.32105 -1.62504,2.62844 -5.11996,3.74633 -7.79821,2.49435 z m 46.334722,0.22991 c -1.25165,-0.36001 -3.54441,-2.73847 -3.94421,-4.09163 -0.96586,-3.269 0.57174,-6.68949 3.57234,-7.9469 1.21328,-0.50843 3.70408,-0.4392 4.97531,0.13828 1.23359,0.56038 2.60421,1.8521 3.21167,3.02679 0.23318,0.45093 0.48332,1.55932 0.55587,2.4631 0.1073,1.33676 0.0226,1.86892 -0.45386,2.85325 -1.43845,2.97144 -4.7619,4.46464 -7.91712,3.55711 z m -16.5691,-23.22838 c -3.50799,-0.11475 -4.67648,-0.24501 -5.30923,-0.59183 -1.31443,-0.72046 -6.46503,-5.11826 -7.19354,-6.14216 -1.96637,-2.76366 -0.33895,-6.51002 2.82796,-6.51002 1.39748,0 1.86041,0.24376 3.98627,2.09903 3.61727,3.15686 2.96326,2.92805 8.36943,2.92805 4.3979,0 4.83441,0.0438 5.92601,0.59531 1.52942,0.77264 2.37331,2.03777 2.37331,3.558 0,2.72899 -2.06973,4.39542 -5.29167,4.26058 -0.65484,-0.0274 -3.21469,-0.11604 -5.68854,-0.19696 z"
       id="path536" /></g></svg>
